Fungal-Grow 900 Thickness 0.ufo
<glyph name="comma" format="1">
  <advance width="651"/>
  <unicode hex="002C"/>
  <outline>
    <contour>
      <point x="240" y="254" type="line"/>
      <point x="451" y="254" type="line"/>
      <point x="451" y="82" type="line"/>
      <point x="287" y="-238" type="line"/>
      <point x="158" y="-238" type="line"/>
      <point x="240" y="82" type="line"/>
    </contour>
    <component base="blob1" xScale="-1.2886" yScale="1.2886" xOffset="119" yOffset="-337"/>
    <component base="blob2" xScale="-1" xOffset="-295" yOffset="-581"/>
    <component base="blob3" xScale="-1" xOffset="-720" yOffset="-454"/>
    <component base="blob4" xScale="-0.6152" yScale="0.6152" xOffset="-1044" yOffset="-635"/>
    <component base="blob5" xScale="-1" xOffset="-1200" yOffset="-978"/>
    <component base="blob6" xScale="-1.1539" yScale="1.1539" xOffset="-1265" yOffset="-1480"/>
    <component base="blob7" xScale="-0.5898" yScale="0.5898" xOffset="-1086" yOffset="-1865"/>
    <component base="blob8" xScale="-0.7047" yScale="0.7047" xOffset="-1040" yOffset="-2133"/>
    <component base="blob9" xScale="-0.4869" yScale="0.4869" xOffset="-1099" yOffset="-2411"/>
  </outline>
</glyph>
<glyph name="five" format="1">
  <advance width="1303"/>
  <unicode hex="0035"/>
  <outline>
    <contour>
      <point x="221" y="1493" type="line"/>
      <point x="1014" y="1493" type="line"/>
      <point x="1014" y="1323" type="line"/>
      <point x="406" y="1323" type="line"/>
      <point x="406" y="957" type="line"/>
      <point x="450" y="972"/>
      <point x="538" y="987"/>
      <point x="582" y="987" type="qcurve" smooth="yes"/>
      <point x="832" y="987"/>
      <point x="1124" y="713"/>
      <point x="1124" y="479" type="qcurve" smooth="yes"/>
      <point x="1124" y="238"/>
      <point x="824" y="-29"/>
      <point x="551" y="-29" type="qcurve" smooth="yes"/>
      <point x="457" y="-29"/>
      <point x="262" y="3"/>
      <point x="158" y="35" type="qcurve"/>
      <point x="158" y="238" type="line"/>
      <point x="248" y="189"/>
      <point x="440" y="141"/>
      <point x="547" y="141" type="qcurve" smooth="yes"/>
      <point x="720" y="141"/>
      <point x="922" y="323"/>
      <point x="922" y="479" type="qcurve" smooth="yes"/>
      <point x="922" y="635"/>
      <point x="720" y="817"/>
      <point x="547" y="817" type="qcurve" smooth="yes"/>
      <point x="466" y="817"/>
      <point x="305" y="781"/>
      <point x="221" y="743" type="qcurve"/>
    </contour>
    <component base="blob1" xScale="0" xyScale="-1.2886" yScale="0" yxScale="-1.2886" xOffset="-44" yOffset="57"/>
    <component base="blob2" xScale="0" xyScale="-1" yScale="0" yxScale="-1" xOffset="-575" yOffset="-193"/>
    <component base="blob3" xScale="0" xyScale="-1" yScale="0" yxScale="-1" xOffset="915" yOffset="242"/>
    <component base="blob4" xScale="0" xyScale="-0.8783" yScale="0" yxScale="-0.8783" xOffset="-1333" yOffset="-621"/>
    <component base="blob5" xScale="0" xyScale="-1" yScale="0" yxScale="-1" xOffset="-1800" yOffset="-538"/>
    <component base="blob7" xScale="0" xyScale="-0.9753" yScale="0" yxScale="-0.9753" xOffset="-3163" yOffset="-724"/>
    <component base="blob8" xScale="0" xyScale="-0.7047" yScale="0" yxScale="-0.7047" xOffset="-3455" yOffset="-1043"/>
    <component base="blob9" xScale="0" xyScale="-0.4869" yScale="0" yxScale="-0.4869" xOffset="-3512" yOffset="-1353"/>
    <component base="blob2" xScale="0" xyScale="-1" yScale="0" yxScale="-1" xOffset="459" yOffset="136"/>
    <component base="blob3" xScale="0" xyScale="-1" yScale="0" yxScale="-1" xOffset="-940" yOffset="-501"/>
    <component base="blob4" xScale="0" xyScale="-0.8783" yScale="0" yxScale="-0.8783" xOffset="1193" yOffset="610"/>
    <component base="blob5" xScale="0" xyScale="-1" yScale="0" yxScale="-1" xOffset="1638" yOffset="702"/>
    <component base="blob6" xScale="0" xyScale="-1.1539" yScale="0" yxScale="-1.1539" xOffset="-2226" yOffset="-209"/>
    <component base="blob6" xScale="0" xyScale="-1.1539" yScale="0" yxScale="-1.1539" xOffset="2022" yOffset="426"/>
    <component base="blob7" xScale="0" xyScale="-1.194" yScale="0" yxScale="-1.194" xOffset="-2750" yOffset="-376"/>
    <component base="blob7" xScale="0" xyScale="-1.194" yScale="0" yxScale="-1.194" xOffset="2598" yOffset="396"/>
    <component base="blob7" xScale="0" xyScale="-0.9753" yScale="0" yxScale="-0.9753" xOffset="3063" yOffset="649"/>
    <component base="blob8" xScale="0" xyScale="-0.7047" yScale="0" yxScale="-0.7047" xOffset="3165" yOffset="1021"/>
    <component base="blob9" xScale="0" xyScale="-0.4869" yScale="0" yxScale="-0.4869" xOffset="2973" yOffset="1221"/>
    <contour>
      <point x="651" y="1520" type="move" name="above"/>
    </contour>
    <contour>
      <point x="651" y="0" type="move" name="below"/>
    </contour>
  </outline>
</glyph>
<glyph name="A" format="1">
  <advance width="1401"/>
  <unicode hex="0041"/>
  <outline>
    <contour>
      <point x="700" y="1294" type="line"/>
      <point x="426" y="551" type="line"/>
      <point x="975" y="551" type="line"/>
      <point x="700" y="1294" type="line"/>
    </contour>
    <contour>
      <point x="586" y="1493" type="line"/>
      <point x="815" y="1493" type="line"/>
      <point x="1384" y="0" type="line"/>
      <point x="1174" y="0" type="line"/>
      <point x="1038" y="383" type="line"/>
      <point x="365" y="383" type="line"/>
      <point x="229" y="0" type="line"/>
      <point x="16" y="0" type="line"/>
      <point x="586" y="1493" type="line"/>
    </contour>
    <component base="blob1" xScale="-1.2886" yScale="-1.2886" xOffset="1426" yOffset="-171"/>
    <component base="blob2" xScale="-1" yScale="-1" xOffset="1316" yOffset="-417"/>
    <component base="blob3" xScale="-1" yScale="-1" xOffset="1476" yOffset="-677"/>
    <component base="blob4" xScale="-0.8168" yScale="-0.8168" xOffset="1590" yOffset="-950"/>
    <component base="blob5" xScale="-1" yScale="-1" xOffset="1494" yOffset="-1242"/>
    <component base="blob6" xScale="-0.8993" yScale="-0.8993" xOffset="1306" yOffset="-1501"/>
    <component base="blob7" xScale="-1.0017" yScale="-1.0017" xOffset="1122" yOffset="-1783"/>
    <component base="blob8" xScale="-0.7047" yScale="-0.7047" xOffset="1161" yOffset="-2088"/>
    <component base="blob9" xScale="-0.4869" yScale="-0.4869" xOffset="1270" yOffset="-2270"/>
    <component base="blob6" xScale="-0.6653" yScale="-0.6653" xOffset="1704" yOffset="-1365"/>
    <component base="blob7" xScale="-0.5954" yScale="-0.5954" xOffset="1832" yOffset="-1527"/>
    <component base="blob8" xScale="-0.3743" yScale="-0.3743" xOffset="1865" yOffset="-1669"/>
    <component base="blob9" xScale="-0.4869" yScale="-0.4869" xOffset="1853" yOffset="-1819"/>
    <component base="blob3" xScale="-0.8892" yScale="-0.8892" xOffset="824" yOffset="697"/>
    <component base="blob4" xScale="-0.8168" yScale="-0.8168" xOffset="666" yOffset="919"/>
    <component base="blob5" xScale="-0.8543" yScale="-0.8543" xOffset="364" yOffset="896"/>
    <component base="blob6" xScale="-0.8993" yScale="-0.8993" xOffset="176" yOffset="1210"/>
    <component base="blob7" xScale="-1.0017" yScale="-1.0017" xOffset="-223" yOffset="1104"/>
    <component base="blob8" xScale="-0.7047" yScale="-0.7047" xOffset="-468" yOffset="868"/>
    <component base="blob9" xScale="-0.4869" yScale="-0.4869" xOffset="-728" yOffset="979"/>
    <component base="blob2" xScale="-1" yScale="-1" xOffset="1228" yOffset="208"/>
    <component base="blob3" xScale="-0.8329" yScale="-0.8329" xOffset="1167" yOffset="522"/>
    <contour>
      <point x="700" y="1520" type="move" name="above"/>
    </contour>
    <contour>
      <point x="700" y="0" type="move" name="below"/>
    </contour>
    <contour>
      <point x="1279" y="0" type="move" name="cedilla"/>
    </contour>
    <contour>
      <point x="0" y="1520" type="move" name="half"/>
    </contour>
    <contour>
      <point x="1240" y="0" type="move" name="ogonek"/>
    </contour>
  </outline>
</glyph>
<glyph name="Q" format="1">
  <advance width="1612"/>
  <unicode hex="0051"/>
  <outline>
    <contour>
      <point x="807" y="1356" type="curve"/>
      <point x="807" y="1356" type="line"/>
      <point x="513.667" y="1356"/>
      <point x="328" y="1122.333"/>
      <point x="328" y="745" type="curve" smooth="yes"/>
      <point x="328" y="369"/>
      <point x="513.667" y="135"/>
      <point x="807" y="135" type="curve" smooth="yes"/>
      <point x="1100.333" y="135"/>
      <point x="1284" y="369"/>
      <point x="1284" y="745" type="curve" smooth="yes"/>
      <point x="1284" y="1122.333"/>
      <point x="1100.333" y="1356"/>
    </contour>
    <contour>
      <point x="1090" y="27" type="curve"/>
      <point x="1090" y="27" type="line"/>
      <point x="1356" y="-264" type="line"/>
      <point x="1112" y="-264" type="line"/>
      <point x="891" y="-25" type="line"/>
      <point x="847" y="-27.667"/>
      <point x="828.333" y="-29"/>
      <point x="807" y="-29" type="curve" smooth="yes"/>
      <point x="387" y="-29"/>
      <point x="115" y="274.333"/>
      <point x="115" y="745" type="curve" smooth="yes"/>
      <point x="115" y="1217"/>
      <point x="387" y="1520"/>
      <point x="807" y="1520" type="curve" smooth="yes"/>
      <point x="1225.667" y="1520"/>
      <point x="1497" y="1217"/>
      <point x="1497" y="745" type="curve" smooth="yes"/>
      <point x="1497" y="398.333"/>
      <point x="1354" y="144.333"/>
    </contour>
    <component base="blob1" xScale="0" xyScale="1.2886" yScale="0" yxScale="1.2886" xOffset="1242" yOffset="-384"/>
    <component base="blob2" xScale="0" xyScale="1" yScale="0" yxScale="1" xOffset="1657" yOffset="-774"/>
    <component base="blob3" xScale="0" xyScale="1" yScale="0" yxScale="1" xOffset="1938" yOffset="-1197"/>
    <component base="blob4" xScale="0" xyScale="0.8783" yScale="0" yxScale="0.8783" xOffset="2042" yOffset="-1632"/>
    <component base="blob5" xScale="0" xyScale="1" yScale="0" yxScale="1" xOffset="2074" yOffset="-2047"/>
    <component base="blob6" xScale="0" xyScale="1.1539" yScale="0" yxScale="1.1539" xOffset="2020" yOffset="-2588"/>
    <component base="blob7" xScale="0" xyScale="0.9753" yScale="0" yxScale="0.9753" xOffset="2127" yOffset="-3076"/>
    <component base="blob8" xScale="0" xyScale="0.7047" yScale="0" yxScale="0.7047" xOffset="2387" yOffset="-3408"/>
    <component base="blob9" xScale="0" xyScale="0.4869" yScale="0" yxScale="0.4869" xOffset="2614" yOffset="-3562"/>
    <component base="blob2" xScale="0" xyScale="1" yScale="0" yxScale="1" xOffset="824" yOffset="13"/>
    <component base="blob3" xScale="0" xyScale="1" yScale="0" yxScale="1" xOffset="420" yOffset="268"/>
    <component base="blob4" xScale="0" xyScale="0.8783" yScale="0" yxScale="0.8783" xOffset="476" yOffset="724"/>
    <component base="blob5" xScale="0" xyScale="1" yScale="0" yxScale="1" xOffset="836" yOffset="977"/>
    <component base="blob6" xScale="0" xyScale="1.1539" yScale="0" yxScale="1.1539" xOffset="1339" yOffset="814"/>
    <component base="blob7" xScale="0" xyScale="0.9753" yScale="0" yxScale="0.9753" xOffset="1784" yOffset="602"/>
    <component base="blob8" xScale="0" xyScale="0.7047" yScale="0" yxScale="0.7047" xOffset="2155" yOffset="789"/>
    <component base="blob9" xScale="0" xyScale="0.4869" yScale="0" yxScale="0.4869" xOffset="2397" yOffset="907"/>
    <contour>
      <point x="807" y="1520" type="move" name="above"/>
    </contour>
    <contour>
      <point x="807" y="0" type="move" name="below"/>
    </contour>
    <contour>
      <point x="0" y="1520" type="move" name="half"/>
    </contour>
  </outline>
</glyph>
<glyph name="T" format="1">
  <advance width="1251"/>
  <unicode hex="0054"/>
  <outline>
    <contour>
      <point x="-6" y="1493" type="line"/>
      <point x="1257" y="1493" type="line"/>
      <point x="1257" y="1323" type="line"/>
      <point x="727" y="1323" type="line"/>
      <point x="727" y="0" type="line"/>
      <point x="524" y="0" type="line"/>
      <point x="524" y="1323" type="line"/>
      <point x="-6" y="1323" type="line"/>
      <point x="-6" y="1493" type="line"/>
    </contour>
    <component base="blob1" xScale="0" xyScale="1.2886" yScale="0" yxScale="1.2886" xOffset="-188" yOffset="1432"/>
    <component base="blob2" xScale="0" xyScale="1" yScale="0" yxScale="1" xOffset="-647" yOffset="1774"/>
    <component base="blob3" xScale="0" xyScale="1" yScale="0" yxScale="1" xOffset="-1015" yOffset="2052"/>
    <component base="blob4" xScale="0" xyScale="0.8783" yScale="0" yxScale="0.8783" xOffset="-1475" yOffset="2095"/>
    <component base="blob5" xScale="0" xyScale="1.0354" yScale="0" yxScale="1.0354" xOffset="-1922" yOffset="2024"/>
    <component base="blob6" xScale="0" xyScale="1.1539" yScale="0" yxScale="1.1539" xOffset="-2385" yOffset="1703"/>
    <component base="blob7" xScale="0" xyScale="0.9753" yScale="0" yxScale="0.9753" xOffset="-2578" yOffset="1200"/>
    <component base="blob8" xScale="0" xyScale="0.8782" yScale="0" yxScale="0.8782" xOffset="-2585" yOffset="788"/>
    <component base="blob9" xScale="0" xyScale="0.4869" yScale="0" yxScale="0.4869" xOffset="-2491" yOffset="479"/>
    <component base="blob1" xScale="0" xyScale="1.1503" yScale="0" yxScale="1.1503" xOffset="1439" yOffset="1382"/>
    <component base="blob2" xScale="0" xyScale="1" yScale="0" yxScale="1" xOffset="1925" yOffset="1150"/>
    <component base="blob3" xScale="0" xyScale="1" yScale="0" yxScale="1" xOffset="2399" yOffset="1315"/>
    <component base="blob4" xScale="0" xyScale="0.8783" yScale="0" yxScale="0.8783" xOffset="2680" yOffset="1673"/>
    <component base="blob5" xScale="0" xyScale="1.0354" yScale="0" yxScale="1.0354" xOffset="3055" yOffset="1978"/>
    <component base="blob6" xScale="0" xyScale="0.9943" yScale="0" yxScale="0.9943" xOffset="3448" yOffset="2249"/>
    <component base="blob7" xScale="0" xyScale="0.9753" yScale="0" yxScale="0.9753" xOffset="3941" yOffset="2205"/>
    <component base="blob8" xScale="0" xyScale="0.8782" yScale="0" yxScale="0.8782" xOffset="4180" yOffset="1820"/>
    <component base="blob9" xScale="0" xyScale="0.4869" yScale="0" yxScale="0.4869" xOffset="4286" yOffset="1514"/>
    <component base="blob2" xScale="0" xyScale="1" yScale="0" yxScale="1" xOffset="341" yOffset="1376"/>
    <component base="blob3" xScale="0" xyScale="1" yScale="0" yxScale="1" xOffset="594" yOffset="1004"/>
    <component base="blob2" xScale="0" xyScale="1" yScale="0" yxScale="1" xOffset="979" yOffset="1454"/>
    <component base="blob2" xScale="0" xyScale="1" yScale="0" yxScale="1" xOffset="716" yOffset="1318"/>
    <component base="blob4" xScale="0" xyScale="0.8783" yScale="0" yxScale="0.8783" xOffset="350" yOffset="643"/>
    <component base="blob5" xScale="0" xyScale="1.0354" yScale="0" yxScale="1.0354" xOffset="364" yOffset="204"/>
    <component base="blob6" xScale="0" xyScale="1.1539" yScale="0" yxScale="1.1539" xOffset="817" yOffset="-37"/>
    <component base="blob7" xScale="0" xyScale="0.9753" yScale="0" yxScale="0.9753" xOffset="1276" yOffset="131"/>
    <component base="blob8" xScale="0" xyScale="0.8782" yScale="0" yxScale="0.8782" xOffset="1666" yOffset="-50"/>
    <component base="blob9" xScale="0" xyScale="0.4869" yScale="0" yxScale="0.4869" xOffset="1809" yOffset="-292"/>
    <contour>
      <point x="627" y="1520" type="move" name="above"/>
    </contour>
    <contour>
      <point x="627" y="0" type="move" name="below"/>
    </contour>
    <contour>
      <point x="0" y="1520" type="move" name="half"/>
    </contour>
  </outline>
</glyph>
<glyph name="d" format="1">
  <advance width="1300"/>
  <unicode hex="0064"/>
  <outline>
    <contour>
      <point x="930" y="950" type="curve"/>
      <point x="930" y="950" type="line"/>
      <point x="930" y="1556" type="line"/>
      <point x="1114" y="1556" type="line"/>
      <point x="1114" y="0" type="line"/>
      <point x="930" y="0" type="line"/>
      <point x="930" y="168" type="line"/>
      <point x="852.667" y="34.667"/>
      <point x="736.333" y="-29"/>
      <point x="571" y="-29" type="curve" smooth="yes"/>
      <point x="300.333" y="-29"/>
      <point x="113" y="207"/>
      <point x="113" y="559" type="curve" smooth="yes"/>
      <point x="113" y="911"/>
      <point x="300.333" y="1147"/>
      <point x="571" y="1147" type="curve" smooth="yes"/>
      <point x="736.333" y="1147"/>
      <point x="852.667" y="1083.333"/>
    </contour>
    <contour>
      <point x="303" y="559" type="curve"/>
      <point x="303" y="559" type="line"/>
      <point x="303" y="288.333"/>
      <point x="421.333" y="125"/>
      <point x="616" y="125" type="curve" smooth="yes"/>
      <point x="810.667" y="125"/>
      <point x="930" y="288.333"/>
      <point x="930" y="559" type="curve" smooth="yes"/>
      <point x="930" y="829.667"/>
      <point x="810.667" y="993"/>
      <point x="616" y="993" type="curve" smooth="yes"/>
      <point x="421.333" y="993"/>
      <point x="303" y="829.667"/>
    </contour>
    <component base="blob1" xScale="1.2886" yScale="1.2886" xOffset="1060" yOffset="1727"/>
    <component base="blob2" xOffset="858" yOffset="2216"/>
    <component base="blob3" xOffset="1156" yOffset="2584"/>
    <component base="blob4" xScale="0.8783" yScale="0.8783" xOffset="1305" yOffset="2997"/>
    <component base="blob5" xOffset="1396" yOffset="3350"/>
    <component base="blob6" xScale="1.1539" yScale="1.1539" xOffset="1134" yOffset="3792"/>
    <component base="blob7" xScale="0.9753" yScale="0.9753" xOffset="1378" yOffset="4239"/>
    <component base="blob8" xScale="0.7047" yScale="0.7047" xOffset="1690" yOffset="4439"/>
    <component base="blob9" xScale="0.4869" yScale="0.4869" xOffset="1837" yOffset="4678"/>
    <component base="blob1" xScale="1.2886" yScale="-1.2886" xOffset="457" yOffset="850"/>
    <component base="blob2" yScale="-1" xOffset="369" yOffset="447"/>
    <component base="blob3" yScale="-1" xOffset="535" yOffset="147"/>
    <component base="blob4" xScale="0.6152" yScale="-0.6152" xOffset="749" yOffset="-35"/>
    <component base="blob5" yScale="-1" xOffset="1052" yOffset="-133"/>
    <component base="blob6" xScale="1.1539" yScale="-1.1539" xOffset="1132" yOffset="-594"/>
    <component base="blob7" xScale="0.5898" yScale="-0.5898" xOffset="908" yOffset="-864"/>
    <component base="blob8" xScale="0.7047" yScale="-0.7047" xOffset="723" yOffset="-836"/>
    <component base="blob9" xScale="0.4869" yScale="-0.4869" xOffset="463" yOffset="-819"/>
    <contour>
      <point x="1022" y="1520" type="move" name="above"/>
    </contour>
    <contour>
      <point x="614" y="0" type="move" name="below"/>
    </contour>
    <contour>
      <point x="614" y="0" type="move" name="cedilla"/>
    </contour>
    <contour>
      <point x="0" y="1520" type="move" name="half"/>
    </contour>
  </outline>
</glyph>
<glyph name="uni0197" format="1">
  <advance width="604"/>
  <unicode hex="0197"/>
  <outline>
    <contour>
      <point x="201" y="1493" type="line"/>
      <point x="403" y="1493" type="line"/>
      <point x="403" y="747" type="line"/>
      <point x="594" y="747" type="line"/>
      <point x="594" y="577" type="line"/>
      <point x="403" y="577" type="line"/>
      <point x="403" y="0" type="line"/>
      <point x="201" y="0" type="line"/>
      <point x="201" y="577" type="line"/>
      <point x="10" y="577" type="line"/>
      <point x="10" y="747" type="line"/>
      <point x="201" y="747" type="line"/>
    </contour>
    <contour>
      <point x="303" y="1520" type="move" name="above"/>
    </contour>
    <contour>
      <point x="303" y="0" type="move" name="below"/>
    </contour>
    <contour>
      <point x="303" y="0" type="move" name="cedilla"/>
    </contour>
    <contour>
      <point x="0" y="1520" type="move" name="half"/>
    </contour>
    <contour>
      <point x="344" y="0" type="move" name="ogonek"/>
    </contour>
  </outline>
</glyph>
<glyph name="uni019F" format="1">
  <advance width="1612"/>
  <unicode hex="019F"/>
  <outline>
    <contour>
      <point x="115" y="745" type="qcurve" smooth="yes"/>
      <point x="115" y="1099"/>
      <point x="492" y="1520"/>
      <point x="806.5" y="1520" type="qcurve" smooth="yes"/>
      <point x="1121" y="1520"/>
      <point x="1497" y="1099"/>
      <point x="1497" y="745.5" type="qcurve" smooth="yes"/>
      <point x="1497" y="392"/>
      <point x="1121" y="-29"/>
      <point x="806.5" y="-29" type="qcurve" smooth="yes"/>
      <point x="492" y="-29"/>
      <point x="115" y="391"/>
    </contour>
    <contour>
      <point x="807.5" y="1356" type="qcurve" smooth="yes"/>
      <point x="605.5" y="1356"/>
      <point x="350.5" y="1072"/>
      <point x="337.5" y="877" type="qcurve"/>
      <point x="1277.5" y="877" type="line"/>
      <point x="1264.5" y="1072"/>
      <point x="1009.5" y="1356"/>
    </contour>
    <contour>
      <point x="328" y="710" type="line"/>
      <point x="336" y="453"/>
      <point x="587" y="135"/>
      <point x="807" y="135" type="qcurve" smooth="yes"/>
      <point x="1027" y="135"/>
      <point x="1275" y="452"/>
      <point x="1283" y="710" type="qcurve"/>
    </contour>
    <contour>
      <point x="807" y="1520" type="move" name="above"/>
    </contour>
    <contour>
      <point x="807" y="0" type="move" name="below"/>
    </contour>
    <contour>
      <point x="807" y="0" type="move" name="cedilla"/>
    </contour>
    <contour>
      <point x="0" y="1520" type="move" name="half"/>
    </contour>
    <contour>
      <point x="808" y="0" type="move" name="ogonek"/>
    </contour>
  </outline>
</glyph>
<glyph name="uni0246" format="1">
  <advance width="1294"/>
  <unicode hex="0246"/>
  <outline>
    <contour>
      <point x="952" y="1683" type="line"/>
      <point x="1122" y="1683" type="line"/>
      <point x="1057.08" y="1493" type="line"/>
      <point x="1145" y="1493" type="line"/>
      <point x="1145" y="1323" type="line"/>
      <point x="998.989" y="1323" type="line"/>
      <point x="847.958" y="881" type="line"/>
      <point x="1114" y="881" type="line"/>
      <point x="1114" y="711" type="line"/>
      <point x="789.87" y="711" type="line"/>
      <point x="605.011" y="170" type="line"/>
      <point x="1163" y="170" type="line"/>
      <point x="1163" y="0" type="line"/>
      <point x="546.923" y="0" type="line"/>
      <point x="482" y="-190" type="line"/>
      <point x="312" y="-190" type="line"/>
      <point x="376.923" y="0" type="line"/>
      <point x="201" y="0" type="line"/>
      <point x="201" y="1493" type="line"/>
      <point x="887.077" y="1493" type="line"/>
    </contour>
    <contour>
      <point x="435.011" y="170" type="line"/>
      <point x="619.87" y="711" type="line"/>
      <point x="403" y="711" type="line"/>
      <point x="403" y="170" type="line"/>
    </contour>
    <contour>
      <point x="677.958" y="881" type="line"/>
      <point x="828.989" y="1323" type="line"/>
      <point x="403" y="1323" type="line"/>
      <point x="403" y="881" type="line"/>
    </contour>
    <contour>
      <point x="670" y="1520" type="move" name="above"/>
    </contour>
    <contour>
      <point x="670" y="0" type="move" name="below"/>
    </contour>
  </outline>
</glyph>
<glyph name="uni0265" format="1">
  <advance width="1298"/>
  <unicode hex="0265"/>
  <outline>
    <contour>
      <point x="174" y="442" type="qcurve" smooth="yes"/>
      <point x="174" y="1120" type="line"/>
      <point x="358" y="1120" type="line"/>
      <point x="358" y="449" type="line" smooth="yes"/>
      <point x="358" y="290"/>
      <point x="482" y="131"/>
      <point x="606" y="131" type="qcurve" smooth="yes"/>
      <point x="755" y="131"/>
      <point x="928" y="321"/>
      <point x="928" y="485" type="qcurve" smooth="yes"/>
      <point x="928" y="1120" type="line"/>
      <point x="1112" y="1120" type="line"/>
      <point x="1112" y="-426" type="line"/>
      <point x="928" y="-426" type="line"/>
      <point x="928" y="172" type="line"/>
      <point x="861" y="70"/>
      <point x="684" y="-29"/>
      <point x="567" y="-29" type="qcurve" smooth="yes"/>
      <point x="374" y="-29"/>
      <point x="174" y="211"/>
    </contour>
    <contour>
      <point x="637" y="1147" type="move" name="above"/>
    </contour>
    <contour>
      <point x="637" y="-430" type="move" name="below"/>
    </contour>
  </outline>
</glyph>
<glyph name="uni0269" format="1">
  <advance width="693"/>
  <unicode hex="0269"/>
  <outline>
    <component base="iota"/>
    <contour>
      <point x="263" y="1147" type="move" name="above"/>
    </contour>
    <contour>
      <point x="263" y="0" type="move" name="below"/>
    </contour>
  </outline>
</glyph>
<glyph name="uni026D" format="1">
  <advance width="570"/>
  <unicode hex="026D"/>
  <outline>
    <contour>
      <point x="377" y="1556" type="line"/>
      <point x="377" y="-30" type="line" smooth="yes"/>
      <point x="377" y="-154"/>
      <point x="438" y="-270"/>
      <point x="558" y="-270" type="qcurve" smooth="yes"/>
      <point x="607" y="-270" type="line"/>
      <point x="607" y="-426" type="line"/>
      <point x="537" y="-426" type="line" smooth="yes"/>
      <point x="346" y="-426"/>
      <point x="193" y="-222"/>
      <point x="193" y="-20" type="qcurve" smooth="yes"/>
      <point x="193" y="1556" type="line"/>
    </contour>
    <contour>
      <point x="278" y="1520" type="move" name="above"/>
    </contour>
    <contour>
      <point x="278" y="-430" type="move" name="below"/>
    </contour>
  </outline>
</glyph>
<glyph name="uni029C" format="1">
  <advance width="1339"/>
  <unicode hex="029C"/>
  <outline>
    <component base="uni043D"/>
    <contour>
      <point x="675" y="1147" type="move" name="above"/>
    </contour>
    <contour>
      <point x="675" y="-10" type="move" name="below"/>
    </contour>
  </outline>
</glyph>
<glyph name="uni030C" format="1">
  <advance width="0"/>
  <unicode hex="030C"/>
  <outline>
    <contour>
      <point x="-582" y="1262" type="line"/>
      <point x="-827" y="1638" type="line"/>
      <point x="-688" y="1638" type="line"/>
      <point x="-508" y="1393" type="line"/>
      <point x="-328" y="1638" type="line"/>
      <point x="-189" y="1638" type="line"/>
      <point x="-434" y="1262" type="line"/>
    </contour>
    <contour>
      <point x="-512" y="1147" type="move"/>
    </contour>
    <contour>
      <point x="-512" y="1147" type="move" name="_above"/>
    </contour>
    <contour>
      <point x="-512" y="1147" type="move" name="_above-mark"/>
    </contour>
    <contour>
      <point x="-512" y="1640" type="move" name="above-mark"/>
    </contour>
  </outline>
</glyph>
<glyph name="uni031E" format="1">
  <advance width="0"/>
  <unicode hex="031E"/>
  <outline>
    <contour>
      <point x="-580" y="-315" type="line"/>
      <point x="-757" y="-315" type="line"/>
      <point x="-757" y="-179" type="line"/>
      <point x="-267" y="-179" type="line"/>
      <point x="-267" y="-315" type="line"/>
      <point x="-444" y="-315" type="line"/>
      <point x="-444" y="-492" type="line"/>
      <point x="-580" y="-492" type="line"/>
    </contour>
    <contour>
      <point x="-512" y="-1" type="move" name="_Ligature below"/>
    </contour>
    <contour>
      <point x="-512" y="-1" type="move" name="_below"/>
    </contour>
    <contour>
      <point x="-512" y="0" type="move" name="_below-mark"/>
    </contour>
    <contour>
      <point x="-512" y="-491" type="move" name="below-mark"/>
    </contour>
  </outline>
</glyph>
<glyph name="uni0320" format="1">
  <advance width="0"/>
  <unicode hex="0320"/>
  <outline>
    <contour>
      <point x="-757" y="-376" type="line"/>
      <point x="-757" y="-240" type="line"/>
      <point x="-267" y="-240" type="line"/>
      <point x="-267" y="-376" type="line"/>
    </contour>
    <contour>
      <point x="-512" y="-1" type="move" name="_Ligature below"/>
    </contour>
    <contour>
      <point x="-512" y="-1" type="move" name="_below"/>
    </contour>
    <contour>
      <point x="-512" y="0" type="move" name="_below-mark"/>
    </contour>
    <contour>
      <point x="-512" y="-375" type="move" name="below-mark"/>
    </contour>
  </outline>
</glyph>
<glyph name="uni032C" format="1">
  <advance width="0"/>
  <unicode hex="032C"/>
  <outline>
    <component base="caron" xOffset="-1020" yOffset="-1754"/>
    <contour>
      <point x="-512" y="-1" type="move" name="_Ligature below"/>
    </contour>
    <contour>
      <point x="-512" y="-1" type="move" name="_below"/>
    </contour>
    <contour>
      <point x="-512" y="0" type="move" name="_below-mark"/>
    </contour>
    <contour>
      <point x="-512" y="-488" type="move" name="below-mark"/>
    </contour>
  </outline>
</glyph>
<glyph name="uni037F" format="1">
  <advance width="604"/>
  <unicode hex="037F"/>
  <outline>
    <component base="J"/>
    <contour>
      <point x="302" y="1520" type="move" name="above"/>
    </contour>
    <contour>
      <point x="302" y="-430" type="move" name="below"/>
    </contour>
    <contour>
      <point x="0" y="1520" type="move" name="half"/>
    </contour>
  </outline>
</glyph>
<glyph name="uni04AC" format="1">
  <advance width="1251"/>
  <unicode hex="04AC"/>
  <outline>
    <contour>
      <point x="727" y="170" type="line"/>
      <point x="928" y="170" type="line"/>
      <point x="928" y="-321" type="line"/>
      <point x="727" y="-321" type="line"/>
      <point x="727" y="0" type="line"/>
      <point x="524" y="0" type="line"/>
      <point x="524" y="1323" type="line"/>
      <point x="-6" y="1323" type="line"/>
      <point x="-6" y="1493" type="line"/>
      <point x="1257" y="1493" type="line"/>
      <point x="1257" y="1323" type="line"/>
      <point x="727" y="1323" type="line"/>
    </contour>
    <contour>
      <point x="627" y="1520" type="move" name="above"/>
    </contour>
  </outline>
</glyph>
<glyph name="uni05B3" format="1">
  <advance width="0"/>
  <unicode hex="05B3"/>
  <outline>
    <contour>
      <point x="780" y="-45" type="line"/>
      <point x="930" y="-45" type="line"/>
      <point x="930" y="-195" type="line"/>
      <point x="780" y="-195" type="line"/>
    </contour>
    <contour>
      <point x="780" y="-295" type="line"/>
      <point x="930" y="-295" type="line"/>
      <point x="930" y="-445" type="line"/>
      <point x="780" y="-445" type="line"/>
    </contour>
    <contour>
      <point x="530" y="-195" type="line"/>
      <point x="530" y="-395" type="line"/>
      <point x="380" y="-395" type="line"/>
      <point x="380" y="-195" type="line"/>
      <point x="255" y="-195" type="line"/>
      <point x="255" y="-45" type="line"/>
      <point x="655" y="-45" type="line"/>
      <point x="655" y="-195" type="line"/>
    </contour>
    <contour>
      <point x="655" y="0" type="move" name="_Ligature rtl-below"/>
    </contour>
    <contour>
      <point x="655" y="0" type="move" name="_rtl-below"/>
    </contour>
    <contour>
      <point x="655" y="0" type="move" name="_rtl-below-mark"/>
    </contour>
  </outline>
</glyph>
<glyph name="uni05B6" format="1">
  <advance width="0"/>
  <unicode hex="05B6"/>
  <outline>
    <contour>
      <point x="580" y="-295" type="line"/>
      <point x="730" y="-295" type="line"/>
      <point x="730" y="-445" type="line"/>
      <point x="580" y="-445" type="line"/>
    </contour>
    <contour>
      <point x="455" y="-45" type="line"/>
      <point x="605" y="-45" type="line"/>
      <point x="605" y="-195" type="line"/>
      <point x="455" y="-195" type="line"/>
    </contour>
    <contour>
      <point x="705" y="-45" type="line"/>
      <point x="855" y="-45" type="line"/>
      <point x="855" y="-195" type="line"/>
      <point x="705" y="-195" type="line"/>
    </contour>
    <contour>
      <point x="655" y="0" type="move" name="_Ligature rtl-below"/>
    </contour>
    <contour>
      <point x="655" y="0" type="move" name="_rtl-below"/>
    </contour>
    <contour>
      <point x="655" y="0" type="move" name="_rtl-below-mark"/>
    </contour>
  </outline>
</glyph>
<glyph name="uni05F0" format="1">
  <advance width="964"/>
  <unicode hex="05F0"/>
  <outline>
    <component base="uni05D5" xOffset="406"/>
    <component base="uni05D5"/>
    <contour>
      <point x="482" y="0" type="move" name="rtl-below"/>
    </contour>
  </outline>
</glyph>
<glyph name="uni0640" format="1">
  <advance width="600"/>
  <unicode hex="0640"/>
  <outline>
    <contour>
      <point x="-20" y="0" type="line"/>
      <point x="-20" y="184" type="line"/>
      <point x="620" y="184" type="line"/>
      <point x="620" y="0" type="line"/>
    </contour>
    <contour>
      <point x="300" y="1200" type="move" name="rtl-above"/>
    </contour>
    <contour>
      <point x="300" y="-100" type="move" name="rtl-below"/>
    </contour>
  </outline>
</glyph>
<glyph name="uni06B1" format="1">
  <advance width="1833"/>
  <unicode hex="06B1"/>
  <outline>
    <component base="uni06AF"/>
    <component base="arabic_2dots" xOffset="900" yOffset="1700"/>
    <contour>
      <point x="500" y="1400" type="move" name="rtl-above"/>
    </contour>
    <contour>
      <point x="800" y="-150" type="move" name="rtl-below"/>
    </contour>
  </outline>
</glyph>
<glyph name="uni07CA" format="1">
  <advance width="569"/>
  <unicode hex="07CA"/>
  <outline>
    <contour>
      <point x="193" y="1493" type="line"/>
      <point x="377" y="1493" type="line"/>
      <point x="377" y="0" type="line"/>
      <point x="193" y="0" type="line"/>
    </contour>
    <contour>
      <point x="278" y="1520" type="move" name="rtl-above"/>
    </contour>
    <contour>
      <point x="278" y="0" type="move" name="rtl-below"/>
    </contour>
  </outline>
</glyph>
<glyph name="uni07E0" format="1">
  <advance width="968"/>
  <unicode hex="07E0"/>
  <outline>
    <contour>
      <point x="907" y="1493" type="line"/>
      <point x="907" y="1346" type="line"/>
      <point x="576" y="1346" type="line"/>
      <point x="576" y="0" type="line"/>
      <point x="392" y="0" type="line"/>
      <point x="392" y="1346" type="line"/>
      <point x="61" y="1346" type="line"/>
      <point x="61" y="1493" type="line"/>
    </contour>
    <contour>
      <point x="477" y="1520" type="move" name="rtl-above"/>
    </contour>
    <contour>
      <point x="477" y="0" type="move" name="rtl-below"/>
    </contour>
  </outline>
</glyph>
<glyph name="uni1D1B" format="1">
  <advance width="1193"/>
  <unicode hex="1D1B"/>
  <outline>
    <component base="uni0442"/>
    <contour>
      <point x="596" y="1147" type="move" name="above"/>
    </contour>
    <contour>
      <point x="596" y="0" type="move" name="below"/>
    </contour>
  </outline>
</glyph>
<glyph name="uni1E11" format="1">
  <advance width="1300"/>
  <unicode hex="1E11"/>
  <outline>
    <component base="d"/>
    <component base="cedilla" xOffset="-10"/>
    <contour>
      <point x="1022" y="1520" type="move" name="above"/>
    </contour>
    <contour>
      <point x="614" y="-396" type="move" name="below"/>
    </contour>
    <contour>
      <point x="0" y="1520" type="move" name="half"/>
    </contour>
  </outline>
</glyph>
<glyph name="uni2C67" format="1">
  <advance width="1540"/>
  <unicode hex="2C67"/>
  <outline>
    <component base="uni04A2"/>
    <contour>
      <point x="770" y="1520" type="move" name="above"/>
    </contour>
    <contour>
      <point x="770" y="0" type="move" name="below"/>
    </contour>
  </outline>
</glyph>
<glyph name="uni2C76" format="1">
  <advance width="1163"/>
  <unicode hex="2C76"/>
  <outline>
    <contour>
      <point x="976" y="516" type="line"/>
      <point x="377" y="516" type="line"/>
      <point x="377" y="0" type="line"/>
      <point x="193" y="0" type="line"/>
      <point x="193" y="1120" type="line"/>
      <point x="377" y="1120" type="line"/>
      <point x="377" y="659" type="line"/>
      <point x="976" y="659" type="line"/>
    </contour>
    <contour>
      <point x="675" y="1147" type="move" name="above"/>
    </contour>
    <contour>
      <point x="675" y="0" type="move" name="below"/>
    </contour>
  </outline>
</glyph>
<glyph name="uniA751" format="1">
  <advance width="1300"/>
  <unicode hex="A751"/>
  <outline>
    <contour>
      <point x="997" y="762"/>
      <point x="830" y="993"/>
      <point x="538" y="993"/>
      <point x="371" y="762"/>
      <point x="371" y="356"/>
      <point x="538" y="125"/>
      <point x="830" y="125"/>
      <point x="997" y="356"/>
    </contour>
    <contour>
      <point x="-5" y="-284" type="line"/>
      <point x="-5" y="-140" type="line"/>
      <point x="186" y="-140" type="line"/>
      <point x="186" y="1120" type="line"/>
      <point x="371" y="1120" type="line"/>
      <point x="371" y="950" type="line"/>
      <point x="429" y="1050"/>
      <point x="606" y="1147"/>
      <point x="729" y="1147" type="qcurve" smooth="yes"/>
      <point x="933" y="1147"/>
      <point x="1188" y="823"/>
      <point x="1188" y="295"/>
      <point x="933" y="-29"/>
      <point x="729" y="-29" type="qcurve" smooth="yes"/>
      <point x="606" y="-29"/>
      <point x="429" y="68"/>
      <point x="371" y="168" type="qcurve"/>
      <point x="371" y="-140" type="line"/>
      <point x="625" y="-140" type="line"/>
      <point x="625" y="-284" type="line"/>
      <point x="371" y="-284" type="line"/>
      <point x="371" y="-426" type="line"/>
      <point x="186" y="-426" type="line"/>
      <point x="186" y="-284" type="line"/>
    </contour>
    <contour>
      <point x="678" y="1147" type="move" name="above"/>
    </contour>
    <contour>
      <point x="678" y="-430" type="move" name="below"/>
    </contour>
    <contour>
      <point x="0" y="1520" type="move" name="half"/>
    </contour>
  </outline>
</glyph>
<glyph name="uniFB6C" format="1">
  <advance width="979"/>
  <unicode hex="FB6C"/>
  <outline>
    <component base="uni06A1.init"/>
    <component base="arabic_3dots" xOffset="300" yOffset="1150"/>
    <contour>
      <point x="500" y="1600" type="move" name="rtl-above"/>
    </contour>
    <contour>
      <point x="500" y="-150" type="move" name="rtl-below"/>
    </contour>
  </outline>
</glyph>
<glyph name="uniFE83" format="1">
  <advance width="569"/>
  <unicode hex="FE83"/>
  <outline>
    <component base="uni0654" xOffset="-227" yOffset="450"/>
    <component base="uni0627"/>
    <contour>
      <point x="285" y="2200" type="move" name="rtl-above"/>
    </contour>
    <contour>
      <point x="285" y="-100" type="move" name="rtl-below"/>
    </contour>
  </outline>
</glyph>
<glyph name="uniFE86" format="1">
  <advance width="1058"/>
  <unicode hex="FE86"/>
  <outline>
    <component base="uniFEEE"/>
    <component base="uni0654" xOffset="-62" yOffset="-450"/>
    <contour>
      <point x="450" y="1250" type="move" name="rtl-above"/>
    </contour>
    <contour>
      <point x="500" y="-500" type="move" name="rtl-below"/>
    </contour>
  </outline>
</glyph>
<glyph name="uniFE99" format="1">
  <advance width="1928"/>
  <unicode hex="FE99"/>
  <outline>
    <component base="arabic_3dots" xOffset="700" yOffset="650"/>
    <component base="uni066E"/>
    <contour>
      <point x="900" y="1100" type="move" name="rtl-above"/>
    </contour>
    <contour>
      <point x="900" y="-150" type="move" name="rtl-below"/>
    </contour>
  </outline>
</glyph>
<glyph name="uniFEA0" format="1">
  <advance width="1322"/>
  <unicode hex="FEA0"/>
  <outline>
    <component base="uniFEA4"/>
    <component base="arabic_dot" xOffset="525" yOffset="-300"/>
    <contour>
      <point x="600" y="1000" type="move" name="rtl-above"/>
    </contour>
    <contour>
      <point x="600" y="-350" type="move" name="rtl-below"/>
    </contour>
  </outline>
</glyph>
<glyph name="l.alt" format="1">
  <advance width="569"/>
  <outline>
    <contour>
      <point x="193" y="1556" type="line"/>
      <point x="377" y="1556" type="line"/>
      <point x="377" y="406" type="line" smooth="yes"/>
      <point x="377" y="253"/>
      <point x="453" y="156"/>
      <point x="558" y="156" type="qcurve" smooth="yes"/>
      <point x="569" y="156" type="line"/>
      <point x="569" y="0" type="line"/>
      <point x="537" y="0" type="line" smooth="yes"/>
      <point x="356" y="0"/>
      <point x="193" y="192"/>
      <point x="193" y="406" type="qcurve" smooth="yes"/>
    </contour>
    <contour>
      <point x="278" y="1520" type="move" name="above"/>
    </contour>
    <contour>
      <point x="278" y="0" type="move" name="below"/>
    </contour>
  </outline>
</glyph>
<glyph name="uni0651064F" format="1">
  <advance width="0"/>
  <outline>
    <component base="uni064F" yOffset="600"/>
    <component base="uni0651"/>
    <contour>
      <point x="512" y="1200" type="move" name="_Ligature rtl-above"/>
    </contour>
    <contour>
      <point x="512" y="1200" type="move" name="_rtl-above"/>
    </contour>
    <contour>
      <point x="512" y="1200" type="move" name="_rtl-above-mark"/>
    </contour>
    <contour>
      <point x="512" y="2500" type="move" name="rtl-above-mark"/>
    </contour>
  </outline>
</glyph>
<glyph name="uni068B.fina" format="1">
  <advance width="1075"/>
  <outline>
    <component base="uni0615" xOffset="-62" yOffset="-250"/>
    <component base="arabic_dot" xOffset="425" yOffset="-350"/>
    <component base="uniFEAA"/>
    <contour>
      <point x="450" y="1600" type="move" name="rtl-above"/>
    </contour>
    <contour>
      <point x="500" y="-400" type="move" name="rtl-below"/>
    </contour>
  </outline>
</glyph>
<glyph name="uni06A0.medi" format="1">
  <advance width="988"/>
  <outline>
    <component base="uniFECC"/>
    <component base="arabic_3dots" xOffset="300" yOffset="950"/>
    <contour>
      <point x="494" y="1400" type="move" name="rtl-above"/>
    </contour>
    <contour>
      <point x="494" y="-100" type="move" name="rtl-below"/>
    </contour>
  </outline>
</glyph>
<glyph name="uni06A5.init" format="1">
  <advance width="979"/>
  <outline>
    <component base="uni06A1.init"/>
    <component base="arabic_3dots_a" xOffset="300" yOffset="-300"/>
    <contour>
      <point x="500" y="1100" type="move" name="rtl-above"/>
    </contour>
    <contour>
      <point x="500" y="-600" type="move" name="rtl-below"/>
    </contour>
  </outline>
</glyph>
<glyph name="uni07CB.fina" format="1">
  <advance width="1170"/>
  <outline>
    <contour>
      <point x="269" y="312"/>
      <point x="454" y="127"/>
      <point x="716" y="127"/>
      <point x="901" y="312"/>
      <point x="901" y="574"/>
      <point x="716" y="759"/>
      <point x="454" y="759"/>
      <point x="269" y="574"/>
    </contour>
    <contour>
      <point x="752" y="0" type="line"/>
      <point x="674" y="-29"/>
      <point x="585" y="-29" type="qcurve" smooth="yes"/>
      <point x="390" y="-29"/>
      <point x="113" y="248"/>
      <point x="113" y="638"/>
      <point x="390" y="915"/>
      <point x="780" y="915"/>
      <point x="1057" y="638"/>
      <point x="1057" y="443" type="qcurve" smooth="yes"/>
      <point x="1057" y="274"/>
      <point x="953" y="147" type="qcurve"/>
      <point x="1190" y="147" type="line"/>
      <point x="1190" y="0" type="line"/>
    </contour>
    <contour>
      <point x="585" y="1520" type="move" name="rtl-above"/>
    </contour>
    <contour>
      <point x="585" y="0" type="move" name="rtl-below"/>
    </contour>
  </outline>
</glyph>
